<?xml version="1.0" encoding="us-ascii" standalone="no"?><svg xmlns="http://www.w3.org/2000/svg" xmlns:xlink="http://www.w3.org/1999/xlink" contentStyleType="text/css" height="542px" preserveAspectRatio="none" style="width:592px;height:542px;background:#FFFFFF;" version="1.1" viewBox="0 0 592 542" width="592px" zoomAndPan="magnify"><defs/><g><!--cluster dart_adapter_wea--><g id="cluster_dart_adapter_wea"><path d="M8.5,6 L154.5,6 A3.75,3.75 0 0 1 157,8.5 L164,28.2969 L582.5,28.2969 A2.5,2.5 0 0 1 585,30.7969 L585,532.5 A2.5,2.5 0 0 1 582.5,535 L8.5,535 A2.5,2.5 0 0 1 6,532.5 L6,8.5 A2.5,2.5 0 0 1 8.5,6 " fill="none" style="stroke:#000000;stroke-width:1.5;"/><line style="stroke:#000000;stroke-width:1.5;" x1="6" x2="164" y1="28.2969" y2="28.2969"/><text fill="#000000" font-family="sans-serif" font-size="14" font-weight="bold" lengthAdjust="spacing" textLength="145" x="10" y="20.9951">dart_adapter_wea</text></g><!--cluster dart_adapter_wea.dart--><g id="cluster_dart_adapter_wea.dart"><path d="M32.5,49 L218.5,49 A3.75,3.75 0 0 1 221,51.5 L228,71.2969 L558.5,71.2969 A2.5,2.5 0 0 1 561,73.7969 L561,508.5 A2.5,2.5 0 0 1 558.5,511 L32.5,511 A2.5,2.5 0 0 1 30,508.5 L30,51.5 A2.5,2.5 0 0 1 32.5,49 " fill="none" style="stroke:#000000;stroke-width:1.5;"/><line style="stroke:#000000;stroke-width:1.5;" x1="30" x2="228" y1="71.2969" y2="71.2969"/><text fill="#000000" font-family="sans-serif" font-size="14" font-weight="bold" lengthAdjust="spacing" textLength="185" x="34" y="63.9951">dart_adapter_wea.dart</text></g><!--class WeatherService--><g id="elem_WeatherService"><rect codeLine="3" fill="#F1F1F1" height="64.2969" id="WeatherService" rx="2.5" ry="2.5" style="stroke:#181818;stroke-width:0.5;" width="291" x="253.5" y="125"/><ellipse cx="337.75" cy="141" fill="#A9DCDF" rx="11" ry="11" style="stroke:#181818;stroke-width:1.0;"/><path d="M339.8281,142.8125 L340.2188,143.7969 L339.8281,143.7969 C339.375,143.7969 339.2656,143.8125 339.1094,143.9219 C338.8594,144.0781 338.7031,144.3594 338.7031,144.6563 C338.7031,144.9219 338.8438,145.1719 339.0625,145.3281 C339.2031,145.4531 339.4063,145.5 339.8281,145.5 L342.1875,145.5 C342.5469,145.5 342.7656,145.4688 342.9063,145.375 C343.1563,145.2344 343.3125,144.9375 343.3125,144.6563 C343.3125,144.375 343.1719,144.125 342.9531,143.9688 C342.7813,143.8281 342.625,143.7969 342.1563,143.7969 L338.7656,135.5938 L335.0938,135.5938 C334.6406,135.5938 334.5156,135.6094 334.3594,135.7031 C334.1094,135.875 333.9531,136.1563 333.9531,136.4375 C333.9531,136.7188 334.0938,136.9688 334.3125,137.1406 C334.4844,137.25 334.6563,137.2813 335.0938,137.2813 L336.1719,137.2813 L333.5313,143.7969 C333.1094,143.7969 332.9531,143.8125 332.7969,143.9219 C332.5469,144.0781 332.3906,144.3594 332.3906,144.6563 C332.3906,145.2188 332.7656,145.5 333.5156,145.5 L335.7813,145.5 C336.1406,145.5 336.3594,145.4688 336.4844,145.375 C336.75,145.2344 336.8906,144.9375 336.8906,144.6563 C336.8906,144.375 336.7656,144.125 336.5469,143.9531 C336.375,143.8281 336.2344,143.7969 335.7813,143.7969 L335.3906,143.7969 L335.7813,142.8125 L339.8281,142.8125 Z M339.125,141.1094 L336.4531,141.1094 L337.7969,137.8438 L339.125,141.1094 Z " fill="#000000"/><text fill="#000000" font-family="sans-serif" font-size="14" font-style="italic" lengthAdjust="spacing" textLength="114" x="358.25" y="145.8467">WeatherService</text><line style="stroke:#181818;stroke-width:0.5;" x1="254.5" x2="543.5" y1="157" y2="157"/><line style="stroke:#181818;stroke-width:0.5;" x1="254.5" x2="543.5" y1="165" y2="165"/><ellipse cx="264.5" cy="178.6484" fill="#84BE84" rx="3" ry="3" style="stroke:#038048;stroke-width:1.0;"/><text fill="#000000" font-family="sans-serif" font-size="14" lengthAdjust="spacing" textLength="265" x="273.5" y="181.9951">Future&lt;WeatherData&gt; getWeather()</text></g><!--class WeatherData--><g id="elem_WeatherData"><rect codeLine="7" fill="#F1F1F1" height="145.7813" id="WeatherData" rx="2.5" ry="2.5" style="stroke:#181818;stroke-width:0.5;" width="172" x="46" y="84"/><ellipse cx="80.8" cy="100" fill="#ADD1B2" rx="11" ry="11" style="stroke:#181818;stroke-width:1.0;"/><path d="M83.1438,95.6719 C82.2063,95.2344 81.6125,95.0938 80.7375,95.0938 C78.1125,95.0938 76.1125,97.1719 76.1125,99.8906 L76.1125,101.0156 C76.1125,103.5938 78.2219,105.4844 81.1125,105.4844 C82.3313,105.4844 83.4875,105.1875 84.2375,104.6406 C84.8156,104.2344 85.1438,103.7813 85.1438,103.3906 C85.1438,102.9375 84.7531,102.5469 84.2844,102.5469 C84.0656,102.5469 83.8625,102.625 83.675,102.8125 C83.2219,103.2969 83.2219,103.2969 83.0344,103.3906 C82.6125,103.6563 81.925,103.7813 81.1594,103.7813 C79.1125,103.7813 77.8156,102.6875 77.8156,100.9844 L77.8156,99.8906 C77.8156,98.1094 79.0656,96.7969 80.8,96.7969 C81.3781,96.7969 81.9875,96.9531 82.4563,97.2031 C82.9406,97.4844 83.1125,97.7031 83.2063,98.1094 C83.2688,98.5156 83.3,98.6406 83.4406,98.7656 C83.5813,98.9063 83.8156,99.0156 84.0344,99.0156 C84.3,99.0156 84.5656,98.875 84.7375,98.6563 C84.8469,98.5 84.8781,98.3125 84.8781,97.8906 L84.8781,96.4688 C84.8781,96.0313 84.8625,95.9063 84.7688,95.75 C84.6125,95.4844 84.3313,95.3438 84.0344,95.3438 C83.7375,95.3438 83.5344,95.4375 83.3156,95.75 L83.1438,95.6719 Z " fill="#000000"/><text fill="#000000" font-family="sans-serif" font-size="14" lengthAdjust="spacing" textLength="96" x="99.2" y="104.8467">WeatherData</text><line style="stroke:#181818;stroke-width:0.5;" x1="47" x2="217" y1="116" y2="116"/><ellipse cx="57" cy="129.6484" fill="none" rx="3" ry="3" style="stroke:#038048;stroke-width:1.0;"/><text fill="#000000" font-family="sans-serif" font-size="14" lengthAdjust="spacing" textLength="108" x="66" y="132.9951">DateTime date</text><ellipse cx="57" cy="145.9453" fill="none" rx="3" ry="3" style="stroke:#038048;stroke-width:1.0;"/><text fill="#000000" font-family="sans-serif" font-size="14" lengthAdjust="spacing" textLength="106" x="66" y="149.292">String location</text><ellipse cx="57" cy="162.2422" fill="none" rx="3" ry="3" style="stroke:#038048;stroke-width:1.0;"/><text fill="#000000" font-family="sans-serif" font-size="14" lengthAdjust="spacing" textLength="146" x="66" y="165.5889">double temperature</text><ellipse cx="57" cy="178.5391" fill="none" rx="3" ry="3" style="stroke:#038048;stroke-width:1.0;"/><text fill="#000000" font-family="sans-serif" font-size="14" lengthAdjust="spacing" textLength="86" x="66" y="181.8857">int pressure</text><ellipse cx="57" cy="194.8359" fill="none" rx="3" ry="3" style="stroke:#038048;stroke-width:1.0;"/><text fill="#000000" font-family="sans-serif" font-size="14" lengthAdjust="spacing" textLength="87" x="66" y="198.1826">int humidity</text><ellipse cx="57" cy="211.1328" fill="none" rx="3" ry="3" style="stroke:#038048;stroke-width:1.0;"/><text fill="#000000" font-family="sans-serif" font-size="14" lengthAdjust="spacing" textLength="132" x="66" y="214.4795">double windSpeed</text><line style="stroke:#181818;stroke-width:0.5;" x1="47" x2="217" y1="221.7813" y2="221.7813"/></g><!--class OpenWeatherMapApi--><g id="elem_OpenWeatherMapApi"><rect codeLine="16" fill="#F1F1F1" height="64.2969" id="OpenWeatherMapApi" rx="2.5" ry="2.5" style="stroke:#181818;stroke-width:0.5;" width="373" x="171.5" y="431"/><ellipse cx="276.25" cy="447" fill="#ADD1B2" rx="11" ry="11" style="stroke:#181818;stroke-width:1.0;"/><path d="M278.5938,442.6719 C277.6563,442.2344 277.0625,442.0938 276.1875,442.0938 C273.5625,442.0938 271.5625,444.1719 271.5625,446.8906 L271.5625,448.0156 C271.5625,450.5938 273.6719,452.4844 276.5625,452.4844 C277.7813,452.4844 278.9375,452.1875 279.6875,451.6406 C280.2656,451.2344 280.5938,450.7813 280.5938,450.3906 C280.5938,449.9375 280.2031,449.5469 279.7344,449.5469 C279.5156,449.5469 279.3125,449.625 279.125,449.8125 C278.6719,450.2969 278.6719,450.2969 278.4844,450.3906 C278.0625,450.6563 277.375,450.7813 276.6094,450.7813 C274.5625,450.7813 273.2656,449.6875 273.2656,447.9844 L273.2656,446.8906 C273.2656,445.1094 274.5156,443.7969 276.25,443.7969 C276.8281,443.7969 277.4375,443.9531 277.9063,444.2031 C278.3906,444.4844 278.5625,444.7031 278.6563,445.1094 C278.7188,445.5156 278.75,445.6406 278.8906,445.7656 C279.0313,445.9063 279.2656,446.0156 279.4844,446.0156 C279.75,446.0156 280.0156,445.875 280.1875,445.6563 C280.2969,445.5 280.3281,445.3125 280.3281,444.8906 L280.3281,443.4688 C280.3281,443.0313 280.3125,442.9063 280.2188,442.75 C280.0625,442.4844 279.7813,442.3438 279.4844,442.3438 C279.1875,442.3438 278.9844,442.4375 278.7656,442.75 L278.5938,442.6719 Z " fill="#000000"/><text fill="#000000" font-family="sans-serif" font-size="14" lengthAdjust="spacing" textLength="155" x="296.75" y="451.8467">OpenWeatherMapApi</text><line style="stroke:#181818;stroke-width:0.5;" x1="172.5" x2="543.5" y1="463" y2="463"/><line style="stroke:#181818;stroke-width:0.5;" x1="172.5" x2="543.5" y1="471" y2="471"/><ellipse cx="182.5" cy="484.6484" fill="#84BE84" rx="3" ry="3" style="stroke:#038048;stroke-width:1.0;"/><text fill="#000000" font-family="sans-serif" font-size="14" lengthAdjust="spacing" textLength="347" x="191.5" y="487.9951">Future&lt;Map&lt;String, dynamic&gt;&gt; fetchWeather()</text></g><!--class OpenWeatherMapAdapter--><g id="elem_OpenWeatherMapAdapter"><rect codeLine="20" fill="#F1F1F1" height="80.5938" id="OpenWeatherMapAdapter" rx="2.5" ry="2.5" style="stroke:#181818;stroke-width:0.5;" width="291" x="232.5" y="290"/><ellipse cx="278.75" cy="306" fill="#ADD1B2" rx="11" ry="11" style="stroke:#181818;stroke-width:1.0;"/><path d="M281.0938,301.6719 C280.1563,301.2344 279.5625,301.0938 278.6875,301.0938 C276.0625,301.0938 274.0625,303.1719 274.0625,305.8906 L274.0625,307.0156 C274.0625,309.5938 276.1719,311.4844 279.0625,311.4844 C280.2813,311.4844 281.4375,311.1875 282.1875,310.6406 C282.7656,310.2344 283.0938,309.7813 283.0938,309.3906 C283.0938,308.9375 282.7031,308.5469 282.2344,308.5469 C282.0156,308.5469 281.8125,308.625 281.625,308.8125 C281.1719,309.2969 281.1719,309.2969 280.9844,309.3906 C280.5625,309.6563 279.875,309.7813 279.1094,309.7813 C277.0625,309.7813 275.7656,308.6875 275.7656,306.9844 L275.7656,305.8906 C275.7656,304.1094 277.0156,302.7969 278.75,302.7969 C279.3281,302.7969 279.9375,302.9531 280.4063,303.2031 C280.8906,303.4844 281.0625,303.7031 281.1563,304.1094 C281.2188,304.5156 281.25,304.6406 281.3906,304.7656 C281.5313,304.9063 281.7656,305.0156 281.9844,305.0156 C282.25,305.0156 282.5156,304.875 282.6875,304.6563 C282.7969,304.5 282.8281,304.3125 282.8281,303.8906 L282.8281,302.4688 C282.8281,302.0313 282.8125,301.9063 282.7188,301.75 C282.5625,301.4844 282.2813,301.3438 281.9844,301.3438 C281.6875,301.3438 281.4844,301.4375 281.2656,301.75 L281.0938,301.6719 Z " fill="#000000"/><text fill="#000000" font-family="sans-serif" font-size="14" lengthAdjust="spacing" textLength="190" x="299.25" y="310.8467">OpenWeatherMapAdapter</text><line style="stroke:#181818;stroke-width:0.5;" x1="233.5" x2="522.5" y1="322" y2="322"/><rect fill="none" height="6" style="stroke:#C82930;stroke-width:1.0;" width="6" x="240.5" y="332.6484"/><text fill="#000000" font-family="sans-serif" font-size="14" lengthAdjust="spacing" textLength="188" x="252.5" y="338.9951">OpenWeatherMapApi _api</text><line style="stroke:#181818;stroke-width:0.5;" x1="233.5" x2="522.5" y1="346.2969" y2="346.2969"/><ellipse cx="243.5" cy="359.9453" fill="#84BE84" rx="3" ry="3" style="stroke:#038048;stroke-width:1.0;"/><text fill="#000000" font-family="sans-serif" font-size="14" lengthAdjust="spacing" textLength="265" x="252.5" y="363.292">Future&lt;WeatherData&gt; getWeather()</text></g><!--reverse link OpenWeatherMapAdapter to OpenWeatherMapApi--><g id="link_OpenWeatherMapAdapter_OpenWeatherMapApi"><path codeLine="25" d="M369.949,384.033 C367.512,399.936 364.914,416.887 362.765,430.908 " fill="none" id="OpenWeatherMapAdapter-backto-OpenWeatherMapApi" style="stroke:#181818;stroke-width:1.0;"/><polygon fill="none" points="371.945,371.008,367.082,376.3326,370.1266,382.8694,374.9896,377.5449,371.945,371.008" style="stroke:#181818;stroke-width:1.0;"/></g><!--reverse link WeatherService to OpenWeatherMapAdapter--><g id="link_WeatherService_OpenWeatherMapAdapter"><path codeLine="26" d="M392.764,208.926 C389.593,234.828 385.796,265.835 382.847,289.92 " fill="none" id="WeatherService-backto-OpenWeatherMapAdapter" style="stroke:#181818;stroke-width:1.0;"/><polygon fill="none" points="385.818,208.058,395.197,189.057,399.714,209.76,385.818,208.058" style="stroke:#181818;stroke-width:1.0;"/></g><!--SRC=[fPB1IiGm48RlUOfXJuhM1mYb88YtnKC5ZsKs-Tq6sZGaKvT5VNTJsiEwNgIzpVp3vFzc9Wb2ddkam0Or0aUM8PBMIl4XIMGZP3fEYNQMepHiEGXYSm9hVQqyJ8BMRs1f4Ml43sUmeqz5TFSyoXXHBhKd5gxe25docrlrhTHAe-cnnIM7U7KzoEPW4cg9pX-f6moB6_masM4yT2117v2dpLIJwhnGY4Zf8c_7tbadvukka_Es3e1Tm_iIu1VcFOV7u7xl9clbp7jFzfoluanLqJl4j9lMT6KxrsVhuWyIDHpSVm-scM4eYatxK-j_PVcrnNiPu0S0]--></g></svg>